Coordinates
version=1
nRows=41
nColumns=38
inDegrees=no

Units are S.I. units (second, meters, Newtons, ...)
If the header above contains a line with 'inDegrees', this indicates whether rotational values are in degrees (yes) or radians (no).

endheader
time	pelvis_tilt	pelvis_list	pelvis_rotation	pelvis_tx	pelvis_ty	pelvis_tz	hip_flexion_r	hip_adduction_r	hip_rotation_r	knee_angle_r	ankle_angle_r	subtalar_angle_r	mtp_angle_r	hip_flexion_l	hip_adduction_l	hip_rotation_l	knee_angle_l	ankle_angle_l	subtalar_angle_l	mtp_angle_l	lumbar_extension	lumbar_bending	lumbar_rotation	arm_flex_r	arm_add_r	arm_rot_r	elbow_flex_r	pro_sup_r	wrist_flex_r	wrist_dev_r	arm_flex_l	arm_add_l	arm_rot_l	elbow_flex_l	pro_sup_l	wrist_flex_l	wrist_dev_l
1.11	2.83102	1.21413	-1.25592	0.633248	0.811762	0.968324	-0.435561	0.104193	-0.432744	0.0901172	-0.315228	0	0	-0.0147951	-0.307439	-0.472204	1.0126	-0.0655615	0	0	-0.478609	0.0783226	-0.0694488	0.0844563	-0.531454	1.08189	0.764921	0.368085	0	0	-0.280781	-0.368131	0.125046	0.931831	1.46744	0	0
1.12	2.86867	1.225	-1.29289	0.632299	0.822155	0.965875	-0.472977	0.105297	-0.249337	0.0192718	-0.294473	0	0	0.000300534	-0.281098	-0.490231	0.965887	-0.0715688	0	0	-0.469855	0.0631653	-0.0751178	0.0809424	-0.53604	1.07649	0.77258	0.370709	0	0	-0.290065	-0.367691	0.121187	0.93457	1.46222	0	0
1.13	2.86997	1.22652	-1.2955	0.632903	0.831823	0.964804	-0.485277	0.104574	-0.244848	0.013469	-0.292767	0	0	0.00887272	-0.274956	-0.507866	0.916458	-0.0805642	0	0	-0.468852	0.0600992	-0.0736618	0.0817989	-0.534896	1.0749	0.771854	0.371915	0	0	-0.294359	-0.368119	0.118041	0.932508	1.45995	0	0
1.14	2.87011	1.22935	-1.29622	0.633383	0.841433	0.963525	-0.495701	0.104049	-0.242429	0.00871401	-0.289502	0	0	0.0184271	-0.267497	-0.522581	0.865196	-0.0905013	0	0	-0.466704	0.0572203	-0.0733546	0.083801	-0.532868	1.07471	0.769334	0.373499	0	0	-0.298162	-0.368418	0.114586	0.929561	1.45553	0	0
1.15	2.86857	1.23379	-1.29438	0.633791	0.851028	0.962026	-0.504374	0.103958	-0.242751	0.00518002	-0.283959	0	0	0.0294334	-0.258921	-0.533613	0.812546	-0.100903	0	0	-0.462703	0.0547566	-0.0742684	0.0864805	-0.529417	1.07559	0.764496	0.375024	0	0	-0.301316	-0.36845	0.111272	0.925382	1.45023	0	0
1.16	2.86434	1.23943	-1.28893	0.634001	0.860522	0.960368	-0.510425	0.104507	-0.24164	0.00406761	-0.276691	0	0	0.0417265	-0.249024	-0.539547	0.757865	-0.110295	0	0	-0.45757	0.0532944	-0.0756982	0.0899199	-0.525575	1.07767	0.758188	0.376004	0	0	-0.303022	-0.368349	0.108907	0.919458	1.44636	0	0
1.17	2.83904	1.30089	-1.27732	0.635566	0.868996	0.953287	-0.396542	0.0885195	-0.211441	0.0737282	-0.250068	0	0	0.120502	-0.223291	-0.528053	0.712683	-0.112621	0	0	-0.393697	0.0357615	-0.0675171	0.0926074	-0.508795	1.08518	0.727791	0.37925	0	0	-0.29995	-0.365331	0.10946	0.89707	1.44998	0	0
1.18	2.83813	1.26032	-1.25712	0.633492	0.879442	0.956447	-0.507504	0.108813	-0.233462	0.00927922	-0.246871	0	0	0.0774047	-0.224808	-0.528727	0.641448	-0.130123	0	0	-0.434747	0.0544609	-0.0813933	0.100017	-0.511004	1.0901	0.728882	0.379695	0	0	-0.300124	-0.365654	0.107913	0.894794	1.45119	0	0
1.19	2.79987	1.32227	-1.23275	0.634843	0.887614	0.948854	-0.387182	0.0927353	-0.203496	0.0867189	-0.225418	0	0	0.154491	-0.1977	-0.506544	0.592706	-0.132034	0	0	-0.371776	0.0381007	-0.0718944	0.102674	-0.498876	1.09881	0.705046	0.38088	0	0	-0.296507	-0.362335	0.107091	0.874808	1.45719	0	0
1.2	2.807	1.27819	-1.21917	0.63244	0.898343	0.952123	-0.50807	0.114768	-0.228167	0.016718	-0.221332	0	0	0.104086	-0.197557	-0.499463	0.522152	-0.144683	0	0	-0.416775	0.0576894	-0.0868904	0.110659	-0.502388	1.10534	0.707746	0.380772	0	0	-0.296926	-0.363125	0.105218	0.874651	1.45894	0	0
1.21	2.79205	1.28609	-1.20246	0.631826	0.907686	0.949807	-0.50378	0.115634	-0.224942	0.0264286	-0.217164	0	0	0.113311	-0.183152	-0.48185	0.464867	-0.14517	0	0	-0.410485	0.0589368	-0.0872542	0.113937	-0.502376	1.10776	0.704891	0.377445	0	0	-0.294827	-0.362575	0.10459	0.867614	1.46147	0	0
1.22	2.79551	1.25147	-1.20233	0.632202	0.917063	0.953451	-0.505137	0.114228	-0.475811	0.0846222	-0.280819	0	0	0.0668587	-0.183509	-0.475462	0.393865	-0.158825	0	0	-0.449292	0.0683692	-0.0837545	0.12427	-0.494992	1.11533	0.692615	0.372753	0	0	-0.286726	-0.366672	0.107933	0.8597	1.46269	0	0
1.23	2.7865	1.26833	-1.19721	0.632273	0.927022	0.950437	-0.516422	0.109673	-0.394575	0.0875433	-0.226707	0	0	0.0801418	-0.166016	-0.458667	0.342246	-0.155145	0	0	-0.432367	0.0616501	-0.0800911	0.125051	-0.490204	1.11876	0.682428	0.368527	0	0	-0.285019	-0.367833	0.110097	0.850496	1.46442	0	0
1.24	2.77564	1.30341	-1.17841	0.629953	0.938094	0.944277	-0.503115	0.112704	-0.239942	0.0631462	-0.186771	0	0	0.116884	-0.138786	-0.423309	0.302361	-0.143504	0	0	-0.392321	0.0545876	-0.0909636	0.120177	-0.491559	1.12266	0.679552	0.366761	0	0	-0.290888	-0.366359	0.10901	0.844417	1.4683	0	0
1.25	2.77888	1.30587	-1.17916	0.629402	0.948787	0.942859	-0.50719	0.110007	-0.24811	0.0774215	-0.178911	0	0	0.111011	-0.127396	-0.403809	0.258997	-0.1468	0	0	-0.389162	0.0514256	-0.0922306	0.121056	-0.487451	1.12836	0.6714	0.365808	0	0	-0.291559	-0.368826	0.109216	0.839459	1.47046	0	0
1.26	2.78392	1.30574	-1.18234	0.62882	0.959637	0.941689	-0.512344	0.106515	-0.256973	0.0960315	-0.17202	0	0	0.103912	-0.12035	-0.390062	0.23144	-0.152537	0	0	-0.388958	0.04867	-0.0929436	0.121271	-0.484965	1.13235	0.666458	0.364072	0	0	-0.292968	-0.371929	0.108917	0.836801	1.47092	0	0
1.27	2.78923	1.30503	-1.18702	0.62825	0.970662	0.940584	-0.518207	0.10246	-0.263649	0.114008	-0.166933	0	0	0.0999562	-0.117463	-0.385079	0.225429	-0.157923	0	0	-0.38932	0.045715	-0.0923212	0.120248	-0.48386	1.13457	0.663956	0.361795	0	0	-0.295051	-0.37497	0.107946	0.835631	1.47021	0	0
1.28	2.79527	1.30368	-1.19344	0.627618	0.981875	0.939633	-0.523599	0.0978535	-0.26828	0.131564	-0.163207	0	0	0.0987602	-0.117963	-0.389161	0.240173	-0.162795	0	0	-0.390095	0.0424768	-0.0906707	0.118526	-0.483397	1.13654	0.662227	0.358737	0	0	-0.29774	-0.377844	0.106386	0.835489	1.46848	0	0
1.29	2.80124	1.30307	-1.20068	0.626915	0.993443	0.93869	-0.523599	0.0918538	-0.272318	0.15338	-0.159605	0	0	0.100562	-0.121213	-0.402921	0.273015	-0.163887	0	0	-0.389484	0.0387715	-0.0883361	0.115856	-0.483496	1.13919	0.661083	0.35457	0	0	-0.301333	-0.380439	0.104172	0.835772	1.46631	0	0
1.3	2.80854	1.30149	-1.20956	0.626117	1.00538	0.937969	-0.523599	0.0852605	-0.275077	0.176552	-0.15854	0	0	0.100007	-0.125755	-0.421602	0.312005	-0.161938	0	0	-0.389409	0.0350316	-0.0853793	0.111867	-0.483864	1.14132	0.660381	0.351532	0	0	-0.305366	-0.382752	0.101318	0.836348	1.46564	0	0
1.31	2.81672	1.29979	-1.21939	0.625205	1.01761	0.937427	-0.523599	0.0782594	-0.275804	0.19946	-0.159852	0	0	0.0960802	-0.129035	-0.439283	0.346471	-0.157514	0	0	-0.389055	0.0311185	-0.0822525	0.106307	-0.484236	1.14132	0.659786	0.348953	0	0	-0.309831	-0.38454	0.097394	0.836922	1.46593	0	0
1.32	2.82557	1.29919	-1.22961	0.624101	1.03	0.937024	-0.523599	0.0710129	-0.273694	0.221058	-0.164359	0	0	0.0896467	-0.127909	-0.451575	0.367801	-0.155931	0	0	-0.387451	0.0268515	-0.0795706	0.0997201	-0.484286	1.13963	0.658603	0.34711	0	0	-0.313941	-0.385816	0.0928817	0.836698	1.46526	0	0
1.33	2.83705	1.2998	-1.24127	0.622766	1.04243	0.936782	-0.523599	0.0631383	-0.268694	0.244179	-0.171251	0	0	0.0822327	-0.122629	-0.45926	0.37711	-0.163748	0	0	-0.384817	0.0219651	-0.0782578	0.0928154	-0.483795	1.13788	0.656745	0.346361	0	0	-0.317359	-0.387204	0.0884899	0.835807	1.46353	0	0
1.34	2.85071	1.3008	-1.25359	0.621147	1.05482	0.936888	-0.523599	0.05516	-0.261447	0.268316	-0.182292	0	0	0.074094	-0.116014	-0.46453	0.380477	-0.181696	0	0	-0.38201	0.0170797	-0.0783362	0.0858369	-0.482344	1.13551	0.653179	0.345907	0	0	-0.319541	-0.388275	0.084175	0.833603	1.46297	0	0
1.35	2.86862	1.30176	-1.26856	0.619237	1.0672	0.937273	-0.523599	0.0456275	-0.255763	0.299037	-0.195538	0	0	0.0650707	-0.108978	-0.469579	0.383376	-0.201519	0	0	-0.379604	0.011906	-0.0801265	0.0787164	-0.480965	1.13243	0.649776	0.345503	0	0	-0.32146	-0.389089	0.0790875	0.831425	1.46372	0	0
1.36	2.8867	1.30168	-1.28205	0.616965	1.07958	0.937923	-0.523599	0.0358146	-0.251025	0.33685	-0.210871	0	0	0.0554368	-0.103421	-0.474527	0.38909	-0.21579	0	0	-0.378327	0.00804302	-0.083517	0.0716643	-0.480805	1.12908	0.647903	0.345088	0	0	-0.323374	-0.38973	0.074008	0.82987	1.46469	0	0
1.37	2.90242	1.30026	-1.29187	0.614349	1.09194	0.93877	-0.523599	0.0266843	-0.245637	0.378884	-0.231537	0	0	0.045477	-0.099911	-0.47854	0.39755	-0.228101	0	0	-0.37833	0.00613984	-0.0881882	0.0645314	-0.48266	1.12488	0.64881	0.344288	0	0	-0.32578	-0.389957	0.0681498	0.830304	1.46567	0	0
1.38	2.87946	1.29047	-1.2626	0.612812	1.10446	0.941039	-0.523599	0.0105807	-0.392919	0.389948	-0.284811	0	0	0.0299888	-0.114619	-0.480494	0.409109	-0.237401	0	0	-0.383336	0.0162637	-0.0886681	0.0580038	-0.480558	1.12203	0.643212	0.343336	0	0	-0.324405	-0.390654	0.0647221	0.82663	1.46581	0	0
1.39	2.8953	1.28709	-1.26845	0.609698	1.11675	0.942265	-0.523599	0.000119897	-0.40304	0.423585	-0.350507	0	0	0.0175915	-0.111373	-0.476371	0.416519	-0.247886	0	0	-0.385614	0.0168524	-0.0978848	0.0514761	-0.484047	1.11748	0.646842	0.342331	0	0	-0.327804	-0.391798	0.0592962	0.830555	1.4654	0	0
1.4	2.9165	1.28341	-1.28032	0.606557	1.12888	0.94348	-0.523599	-0.0120694	-0.400128	0.466363	-0.403245	0	0	0.00245847	-0.105925	-0.472717	0.420922	-0.25073	0	0	-0.388752	0.0161633	-0.106737	0.0448279	-0.489311	1.11274	0.653546	0.341335	0	0	-0.331265	-0.393523	0.054199	0.836859	1.46476	0	0
1.41	2.93684	1.27834	-1.29111	0.603425	1.14064	0.945103	-0.518335	-0.0240773	-0.399664	0.510351	-0.46341	0	0	-0.0152799	-0.100497	-0.467651	0.422757	-0.248858	0	0	-0.394078	0.0164639	-0.115358	0.0390342	-0.494529	1.10772	0.660139	0.340719	0	0	-0.332435	-0.395704	0.0508894	0.842807	1.46364	0	0
1.42	2.9533	1.27381	-1.29813	0.600321	1.15209	0.947037	-0.507135	-0.0334914	-0.394103	0.549567	-0.523072	0	0	-0.0331098	-0.0956134	-0.461694	0.422788	-0.245897	0	0	-0.39859	0.0177871	-0.123624	0.0351411	-0.497906	1.10501	0.662264	0.342226	0	0	-0.330576	-0.398198	0.0508835	0.845839	1.46216	0	0
1.43	2.97399	1.27384	-1.31154	0.597387	1.16316	0.94847	-0.480022	-0.0477181	-0.377046	0.606268	-0.580702	0	0	-0.0472865	-0.0873396	-0.45683	0.421784	-0.241795	0	0	-0.39907	0.0159284	-0.131465	0.0318733	-0.501359	1.10175	0.664778	0.34408	0	0	-0.328617	-0.401535	0.0518981	0.849839	1.45969	0	0
1.44	2.99464	1.27561	-1.32703	0.594674	1.17383	0.949645	-0.447432	-0.0626172	-0.354335	0.669057	-0.622582	0	0	-0.0606073	-0.078077	-0.453195	0.418965	-0.236949	0	0	-0.398191	0.0130147	-0.138178	0.0293922	-0.50532	1.09772	0.668373	0.346014	0	0	-0.32606	-0.405502	0.0537714	0.855032	1.45689	0	0
1.45	3.01368	1.2778	-1.34188	0.592166	1.18425	0.950591	-0.413989	-0.077427	-0.335132	0.735071	-0.643137	0	0	-0.0741104	-0.0692665	-0.450434	0.414804	-0.231656	0	0	-0.397033	0.0101584	-0.144659	0.0278057	-0.510495	1.09442	0.674232	0.348504	0	0	-0.324032	-0.409939	0.054862	0.8624	1.45448	0	0
1.46	3.02827	1.28226	-1.35286	0.589854	1.19448	0.951231	-0.377461	-0.0920576	-0.322378	0.803063	-0.65006	0	0	-0.0849024	-0.0616979	-0.447201	0.410513	-0.224895	0	0	-0.393023	0.00792406	-0.150926	0.0261568	-0.515794	1.08984	0.680366	0.351671	0	0	-0.321732	-0.414499	0.0562108	0.869873	1.45246	0	0
1.47	3.03618	1.28835	-1.3578	0.58775	1.20448	0.951742	-0.337246	-0.104187	-0.309836	0.868024	-0.653557	0	0	-0.0931703	-0.0562908	-0.443273	0.405788	-0.219017	0	0	-0.387025	0.00703364	-0.156742	0.0257911	-0.520289	1.0866	0.68482	0.355793	0	0	-0.318369	-0.418902	0.057781	0.876498	1.45213	0	0
1.48	3.03715	1.29694	-1.35663	0.585971	1.21426	0.952082	-0.292226	-0.11334	-0.293815	0.932192	-0.640238	0	0	-0.0978657	-0.0527756	-0.438177	0.40071	-0.213647	0	0	-0.377944	0.00689789	-0.161838	0.0266573	-0.522809	1.08528	0.68589	0.361326	0	0	-0.313818	-0.423401	0.0596523	0.881669	1.45308	0	0
1.49	3.03337	1.30508	-1.35097	0.584428	1.22391	0.952504	-0.248023	-0.120223	-0.280969	0.990467	-0.606705	0	0	-0.10297	-0.0507509	-0.432939	0.394157	-0.209479	0	0	-0.369104	0.00762054	-0.167003	0.028794	-0.52427	1.08508	0.685274	0.365751	0	0	-0.309054	-0.427955	0.060487	0.886928	1.45472	0	0
1.5	3.02763	1.3129	-1.34333	0.582993	1.23346	0.952999	-0.205173	-0.127065	-0.275493	1.04167	-0.55862	0	0	-0.108784	-0.0491874	-0.427988	0.386695	-0.205663	0	0	-0.360389	0.0087033	-0.172246	0.0318426	-0.524997	1.08654	0.6833	0.36932	0	0	-0.303567	-0.43253	0.0612182	0.891819	1.45716	0	0
1.51	3.02117	1.318	-1.33505	0.581602	1.24283	0.95374	-0.167193	-0.1339	-0.276489	1.0832	-0.516758	0	0	-0.118265	-0.0481385	-0.424781	0.377835	-0.202606	0	0	-0.354879	0.0106876	-0.177059	0.0359306	-0.526746	1.08963	0.682772	0.370904	0	0	-0.29678	-0.437483	0.0626835	0.897249	1.46063	0	0
